<svg xmlns="http://www.w3.org/2000/svg" viewBox="0 0 32 32" role="img" aria-label="A"><title>A</title><rect width="32" height="32" rx="5" fill="#F3F0E8"/><path d="M2.2,17.8 C11.7,17.3 22.4,16.8 31,16.4 L29.8,26 C21.2,26.4 10.2,27 1,27.4Z" fill="#F5D547"/><path d="M25.4 23.3Q25.9 24.6 26.4 25.5Q26.8 26.3 27.7 26.3Q28 26.3 28.1 26.4Q28.2 26.5 28.2 26.8V27.7Q28.2 28.2 27.7 28.2H18Q17.6 28.2 17.6 27.7V26.8Q17.6 26.5 17.7 26.4Q17.7 26.3 18 26.3Q18.9 26.3 19.7 25.7Q20.5 25.1 20.5 24.1Q20.5 23.9 20.5 23.7Q20.4 23.5 20.3 23.3L19.4 20.6H10.7L9.8 23.3Q9.7 23.5 9.7 23.7Q9.7 24 9.7 24.1Q9.7 25.1 10.5 25.7Q11.3 26.3 12.1 26.3Q12.5 26.3 12.5 26.4Q12.6 26.5 12.6 26.8V27.7Q12.6 28.2 12.1 28.2H4.3Q3.8 28.2 3.8 27.7V26.8Q3.8 26.5 3.9 26.4Q4 26.3 4.3 26.3Q5.2 26.3 5.7 25.4Q6.2 24.5 6.7 23.3L13.4 5Q13.5 4.6 14 4.6H17.8Q18.2 4.6 18.3 5ZM11.7 17.9H18.4L15 8.7Z" fill="#1D1B18" stroke="#1D1B18" stroke-width=".35" stroke-linejoin="round"/></svg>
